<svg xmlns="http://www.w3.org/2000/svg" viewBox="0 0 100 100">
  <defs>
    <linearGradient id="gold" x1="0%" y1="0%" x2="100%" y2="100%">
      <stop offset="0%" stop-color="#FFE082" />
      <stop offset="50%" stop-color="#FFB300" />
      <stop offset="100%" stop-color="#B26A00" />
    </linearGradient>
  </defs>
  <!-- Stylized dog paw in gold -->
  <path fill="url(#gold)" d="M22,50 C16,50 12,56 12,63 C12,70 17,75 23,75 C29,75 33,70 33,63 C33,56 28,50 22,50 Z M38,32 C32,32 28,38 28,45 C28,52 33,57 39,57 C45,57 49,52 49,45 C49,38 44,32 38,32 Z M62,32 C56,32 51,38 51,45 C51,52 55,57 61,57 C67,57 72,52 72,45 C72,38 68,32 62,32 Z M78,50 C72,50 67,56 67,63 C67,70 71,75 77,75 C83,75 88,70 88,63 C88,56 84,50 78,50 Z M50,56 C41,56 34,63 34,71 C34,79 40,84 50,84 C60,84 66,79 66,71 C66,63 59,56 50,56 Z" />
</svg>
